<svg xmlns="http://www.w3.org/2000/svg" width="35" height="35" viewBox="0 0 35 35">
  <path id="linkedin-brands" d="M32.5,32H2.492A2.511,2.511,0,0,0,0,34.523V64.477A2.511,2.511,0,0,0,2.492,67H32.5A2.517,2.517,0,0,0,35,64.477V34.523A2.517,2.517,0,0,0,32.5,32ZM10.578,62H5.391V45.3h5.2V62ZM7.984,43.016a3.008,3.008,0,1,1,3.008-3.008A3.009,3.009,0,0,1,7.984,43.016ZM30.023,62H24.836V53.875c0-1.937-.039-4.43-2.7-4.43-2.7,0-3.117,2.109-3.117,4.289V62H13.836V45.3h4.977v2.281h.07a5.464,5.464,0,0,1,4.914-2.7c5.25,0,6.227,3.461,6.227,7.961Z" transform="translate(0 -32)"/>
</svg>
